<svg width="22" height="22" viewBox="0 0 22 22" fill="none" xmlns="http://www.w3.org/2000/svg">
<path fill-rule="evenodd" clip-rule="evenodd" d="M21.3058 5.46188C19.9415 2.14574 16.6839 0 13.0921 0C11.9506 0 10.642 0.250801 9.52828 0.696668C6.32636 2.1736 4.48874 4.68161 4.12678 8.22068C4.04326 9.11242 4.15463 10.0042 4.34953 10.868C4.57227 11.7319 4.87854 12.54 5.32402 13.2924C5.49108 13.5711 5.49108 13.6826 5.24049 13.9334C4.75891 14.4154 4.27425 14.8974 3.78856 15.3804C2.81407 16.3495 1.83543 17.3228 0.869183 18.3084C0.451542 18.7264 0.145272 19.2002 0.0339009 19.7854C-0.160998 20.7607 0.507228 21.7639 1.45388 21.959C2.17779 22.0983 2.81818 21.8754 3.34719 21.4016C3.9704 20.8447 4.55802 20.2522 5.15273 19.6525C5.30197 19.502 5.45165 19.3511 5.60245 19.2002L8.1083 16.6922C8.27535 16.4971 8.41457 16.4971 8.66515 16.6086L8.83221 16.6922C9.91808 17.3052 11.0875 17.6954 12.3404 17.8068C14.2337 17.974 16.0156 17.6118 17.6305 16.6086C20.2756 14.9644 21.7234 12.5958 21.974 9.47469C22.0854 8.08135 21.8348 6.74375 21.3058 5.46188ZM13.0921 2.31294C16.7674 2.3408 19.663 5.23894 19.6909 8.91735C19.6909 12.5679 16.7117 15.5218 13.0921 15.4939C9.44475 15.4939 6.52126 12.5122 6.52126 8.88948C6.52126 5.26681 9.44475 2.31294 13.0921 2.31294Z" fill="#2271BF"/>
<path d="M8.08057 7.52422C8.08057 7.13409 8.27547 6.85542 8.41468 6.57675C9.16643 5.26702 10.2523 4.34741 11.7001 3.87368C12.9252 3.48355 14.1503 3.48355 15.3475 3.90155C15.4867 3.95728 15.6538 4.01301 15.793 4.09661C16.2106 4.31955 16.3777 4.82115 16.2106 5.23915C16.0436 5.65715 15.5703 5.90795 15.1248 5.76862C14.7071 5.65715 14.3173 5.51782 13.8997 5.46208C12.3127 5.23915 10.6421 6.15875 9.94603 7.57995C9.83466 7.77502 9.72329 7.99795 9.58407 8.13729C9.30565 8.41596 8.94369 8.44382 8.60958 8.30449C8.27547 8.13729 8.10841 7.85862 8.08057 7.52422Z" fill="#2271BF"/>
</svg>
